<?xml version="1.0" encoding="UTF-8"?><svg id="Layer_2" xmlns="http://www.w3.org/2000/svg" viewBox="0 0 1064.03 134.8"><defs><style>.cls-1{fill:#15c3ff;}</style></defs><g id="Layer_1-2"><g><polygon points="182.04 31.2 216.44 31.2 216.44 132.4 250.84 132.4 250.84 31.2 285.24 31.2 285.24 2.4 182.04 2.4 182.04 31.2"/><path d="M405.64,44.4c0-32.4-24-42-52-42h-49.2V132.4h34.4v-43.6h13.22l22.38,43.6h38.4l-28.25-50.48c12.65-6.82,21.05-18.95,21.05-37.52Zm-66.8-14.8h12.4c13.6,0,20.8,3.6,20.8,14.8s-7.2,17.2-20.8,17.2h-12.4V29.6Z"/><rect x="430.44" y="2.4" width="34.4" height="130"/><path d="M516.83,2.4l-39.6,130h35.2l6.46-27.6h36.27l6.46,27.6h36.4L558.43,2.4h-41.6Zm8.29,75.8l2.11-9c3.2-12.4,6.4-28,9.2-41.2h.8c3.2,13,6.4,28.8,9.6,41.2l2.11,9h-23.82Z"/><path d="M681.23,40c0,16,2.8,35.6,4.4,49.6h-.8l-12.4-29.2-28.8-58h-35.2V132.4h32.8v-37.6c0-16-2.8-34.8-4.4-49.6h.8l12.4,29,28.8,58.2h35.2V2.4h-32.8V40Z"/><path d="M797.23,84.8h19.2v18c-2.4,1.6-6.4,2.4-10,2.4-23.2,0-34-13.6-34-38s13.2-37.6,30.8-37.6c10.4,0,16.8,4,23.2,9.6l18-22c-9.2-9.2-23.2-17.2-42.4-17.2-34.8,0-64.8,24.8-64.8,68.4s29.2,66.4,65.6,66.4c18.4,0,34.8-7.2,44-16V56.8h-49.6v28Z"/><polygon points="906.43 2.4 872.03 2.4 872.03 132.4 955.63 132.4 955.63 103.6 906.43 103.6 906.43 2.4"/><polygon points="1012.43 103.6 1012.43 80.4 1054.83 80.4 1054.83 51.6 1012.43 51.6 1012.43 31.2 1062.03 31.2 1062.03 2.4 978.03 2.4 978.03 132.4 1064.03 132.4 1064.03 103.6 1012.43 103.6"/></g><polygon class="cls-1" points="0 132.26 130 132.26 130 2.26 0 132.26"/></g></svg>