<?xml version="1.0" encoding="UTF-8"?><svg id="Layer_2" xmlns="http://www.w3.org/2000/svg" xmlns:xlink="http://www.w3.org/1999/xlink" viewBox="0 0 1346 366"><defs><style>.cls-1{fill:url(#linear-gradient);}.cls-2{fill:#fff;}</style><linearGradient id="linear-gradient" x1="21.95" y1="-17.55" x2="1294.89" y2="374.57" gradientUnits="userSpaceOnUse"><stop offset="0" stop-color="#15c3ff"/><stop offset="1" stop-color="#69dfff"/></linearGradient></defs><g id="Layer_1-2"><rect class="cls-1" width="1346" height="366"/><g><g><polygon class="cls-2" points="323.02 146.8 357.42 146.8 357.42 248 391.82 248 391.82 146.8 426.22 146.8 426.22 118 323.02 118 323.02 146.8"/><path class="cls-2" d="M546.62,160c0-32.4-24-42-52-42h-49.2V248h34.4v-43.6h13.22l22.38,43.6h38.4l-28.25-50.48c12.65-6.82,21.05-18.95,21.05-37.52Zm-66.8-14.8h12.4c13.6,0,20.8,3.6,20.8,14.8s-7.2,17.2-20.8,17.2h-12.4v-32Z"/><rect class="cls-2" x="571.42" y="118" width="34.4" height="130"/><path class="cls-2" d="M657.82,118l-39.6,130h35.2l6.46-27.6h36.27l6.46,27.6h36.4l-39.6-130h-41.6Zm8.29,75.8l2.11-9c3.2-12.4,6.4-28,9.2-41.2h.8c3.2,13,6.4,28.8,9.6,41.2l2.11,9h-23.82Z"/><path class="cls-2" d="M822.22,155.6c0,16,2.8,35.6,4.4,49.6h-.8l-12.4-29.2-28.8-58h-35.2V248h32.8v-37.6c0-16-2.8-34.8-4.4-49.6h.8l12.4,29,28.8,58.2h35.2V118h-32.8v37.6Z"/><path class="cls-2" d="M938.22,200.4h19.2v18c-2.4,1.6-6.4,2.4-10,2.4-23.2,0-34-13.6-34-38s13.2-37.6,30.8-37.6c10.4,0,16.8,4,23.2,9.6l18-22c-9.2-9.2-23.2-17.2-42.4-17.2-34.8,0-64.8,24.8-64.8,68.4s29.2,66.4,65.6,66.4c18.4,0,34.8-7.2,44-16v-62h-49.6v28Z"/><polygon class="cls-2" points="1047.42 118 1013.02 118 1013.02 248 1096.62 248 1096.62 219.2 1047.42 219.2 1047.42 118"/><polygon class="cls-2" points="1153.42 219.2 1153.42 196 1195.82 196 1195.82 167.2 1153.42 167.2 1153.42 146.8 1203.02 146.8 1203.02 118 1119.02 118 1119.02 248 1205.02 248 1205.02 219.2 1153.42 219.2"/></g><polygon class="cls-2" points="140.98 247.86 270.98 247.86 270.98 117.86 140.98 247.86"/></g></g></svg>